<svg width="118" height="18" viewBox="0 0 118 18" fill="none" xmlns="http://www.w3.org/2000/svg">
<g clip-path="url(#clip0_1703_2)">
<path d="M17.6831 4.40827V0H5.12535C4.58241 0.000307134 4.06181 0.222789 3.67804 0.618521L0.801234 3.57484C0.546965 3.83613 0.345291 4.1466 0.207792 4.48841C0.0702934 4.83023 -0.000321826 5.19667 1.10259e-06 5.56669V12.4333C0.00204783 13.177 0.290178 13.8895 0.801234 14.4147L3.67804 17.3841C4.06285 17.7779 4.58299 17.9992 5.12535 18H17.6831V13.5917H4.27833V4.41875L17.6831 4.40827Z" fill="#262626"/>
<path d="M47.1938 4.40827V4.36586e-06H52.4566C52.7255 -0.000561114 52.9919 0.0538108 53.2403 0.159976C53.4887 0.266142 53.7143 0.421995 53.9039 0.618525L56.7807 3.57484C57.0353 3.836 57.2374 4.14639 57.3753 4.4882C57.5132 4.83001 57.5843 5.19651 57.5844 5.56669V12.4333C57.5843 12.8035 57.5132 13.17 57.3753 13.5118C57.2374 13.8536 57.0353 14.164 56.7807 14.4252L53.9039 17.3841C53.5194 17.7784 52.999 17.9998 52.4566 18H47.1938V13.5917H53.2985V4.41876L47.1938 4.40827Z" fill="#262626"/>
<path d="M36.811 3.57484L33.9367 0.618521C33.5529 0.222789 33.0324 0.000307168 32.4894 3.36533e-08H25.3139C25.0447 -4.94844e-05 24.7781 0.0545478 24.5293 0.160674C24.2805 0.266801 24.0545 0.422377 23.8641 0.618521L20.9898 3.57484C20.7354 3.83617 20.5335 4.14659 20.3956 4.48836C20.2577 4.83013 20.1865 5.19655 20.186 5.56669V12.4333C20.189 13.1773 20.4781 13.8898 20.9898 14.4147L23.8641 17.371C24.0545 17.5671 24.2805 17.7227 24.5293 17.8288C24.7781 17.935 25.0447 17.9896 25.3139 17.9895H32.4894C33.0324 17.9892 33.5529 17.7667 33.9367 17.371L36.811 14.4147C37.0661 14.1539 37.2684 13.8435 37.4064 13.5017C37.5443 13.1598 37.6152 12.7931 37.6148 12.4228V5.56669C37.6149 5.19647 37.5439 4.82988 37.406 4.48803C37.268 4.14618 37.0658 3.83583 36.811 3.57484ZM33.3364 13.5917H24.4644V4.41875H33.3364V13.5917Z" fill="#262626"/>
<path d="M44.3453 0H40.2476V18H44.3453V0Z" fill="#262626"/>
<path d="M68.9797 11.1963L73.3979 4.40827H64.4953V13.5812H77.722V18H65.3347C64.7917 17.9997 64.2712 17.7772 63.8874 17.3815L61.0284 14.4147C60.7738 14.1535 60.5717 13.8431 60.4338 13.5013C60.2958 13.1595 60.2248 12.793 60.2246 12.4228V5.56669C60.225 5.19655 60.2962 4.83013 60.4342 4.48836C60.5721 4.14659 60.774 3.83617 61.0284 3.57484L63.9026 0.618521C64.2864 0.222789 64.807 0.000307134 65.35 0L77.7373 0V4.40827L73.3445 11.1963H68.9797Z" fill="#262626"/>
<path d="M94.3673 0.822962L97.3357 3.87101C97.496 4.03421 97.6234 4.22843 97.7107 4.44251C97.798 4.65659 97.8435 4.88633 97.8444 5.11854V8.08796C97.8408 8.55428 97.6578 9.00009 97.3357 9.32762L93.4516 13.3663L97.8266 18.0131H93.4516L89.0766 13.3663V9.17299H93.5813V4.19338H84.4854V18.0053H80.2427V1.53327e-05H92.4291C92.7888 -0.00120872 93.1453 0.0708684 93.4779 0.212101C93.8105 0.353333 94.1128 0.560934 94.3673 0.822962Z" fill="#262626"/>
<path d="M118 9L104.687 5.71607V4.40565H118V2.21968e-08H105.814C105.454 -4.64387e-05 105.099 0.0728441 104.767 0.214503C104.435 0.356161 104.134 0.563808 103.88 0.825568L100.319 4.49476V9L113.61 12.318V13.6284H100.327V18.0052H112.445C113.154 18.0065 113.836 17.7247 114.347 17.219L118 13.576V9Z" fill="#262626"/>
</g>
<defs>
<clipPath id="clip0_1703_2">
<rect width="118" height="18" fill="white"/>
</clipPath>
</defs>
</svg>
